<?xml version="1.0" standalone="no"?>
<!DOCTYPE svg PUBLIC "-//W3C//DTD SVG 20010904//EN"
 "http://www.w3.org/TR/2001/REC-SVG-20010904/DTD/svg10.dtd">
<svg version="1.0" xmlns="http://www.w3.org/2000/svg"
 width="512.000000pt" height="512.000000pt" viewBox="0 0 512.000000 512.000000"
 preserveAspectRatio="xMidYMid meet">

<g transform="translate(0.000000,512.000000) scale(0.100000,-0.100000)"
fill="#000000" stroke="none">
<path d="M7 5113 c-4 -3 -7 -1155 -7 -2560 l0 -2553 2560 0 2560 0 0 2560 0
2560 -2553 0 c-1405 0 -2557 -3 -2560 -7z m2826 -651 c54 -8 71 -14 87 -35 28
-35 136 -87 185 -89 49 -1 84 -17 156 -74 67 -51 108 -70 113 -51 13 41 17 47
38 47 25 0 108 -40 108 -52 0 -15 -33 -8 -67 13 -52 32 -61 7 -14 -36 l36 -34
-25 -10 c-14 -5 -20 -10 -15 -11 6 0 3 -5 -5 -10 -13 -9 -13 -10 1 -10 8 0 30
-11 49 -25 18 -13 49 -30 69 -36 20 -6 46 -20 58 -32 l22 -20 31 27 c37 31 39
31 68 10 42 -29 26 -49 -35 -44 -13 1 -23 -4 -23 -10 0 -17 107 -121 164 -159
45 -30 51 -31 79 -20 26 11 31 10 43 -6 13 -18 20 -75 9 -75 -3 0 -14 6 -25
12 -14 9 -22 10 -31 1 -8 -8 10 -35 66 -99 42 -49 84 -95 93 -101 24 -19 49
-16 55 7 8 33 24 23 41 -26 19 -57 14 -68 -25 -49 -27 14 -30 14 -36 -1 -7
-20 37 -110 73 -149 20 -22 29 -25 59 -19 38 7 44 0 60 -74 l7 -34 -32 17
c-19 10 -36 13 -41 8 -9 -9 20 -147 37 -175 21 -35 69 -88 80 -88 11 0 24 -21
24 -41 0 -5 -11 -7 -25 -3 -22 6 -25 3 -25 -23 0 -41 28 -145 45 -163 19 -21
30 -70 16 -70 -6 0 -11 7 -11 15 0 27 -21 16 -36 -20 -17 -42 -18 -134 -2
-170 l12 -26 18 23 c17 23 17 22 11 -32 -6 -60 -18 -84 -29 -57 -20 54 -63
-29 -67 -128 -2 -56 0 -60 21 -63 20 -3 22 -7 16 -35 -3 -18 -8 -35 -11 -39
-7 -14 -23 -9 -23 7 0 19 -20 19 -46 0 -22 -15 -60 -127 -49 -145 3 -6 15 -10
25 -10 28 0 32 -15 16 -55 -17 -39 -36 -47 -36 -14 0 43 -35 14 -72 -60 -40
-78 -49 -131 -23 -131 19 0 19 -5 -2 -41 -20 -34 -33 -37 -33 -9 0 34 -35 23
-72 -23 -75 -90 -96 -146 -62 -165 14 -8 12 -12 -11 -30 -41 -33 -55 -29 -48
13 3 19 2 35 -3 34 -13 -1 -166 -122 -177 -140 -6 -9 -7 -28 -3 -42 5 -21 13
-27 34 -27 l27 -1 -39 -34 c-22 -19 -48 -35 -58 -35 -19 0 -24 15 -8 25 12 7
14 45 3 45 -32 -1 -111 -35 -141 -61 -51 -44 -58 -67 -27 -79 46 -17 25 -44
-42 -55 -49 -8 -53 0 -26 46 22 37 14 44 -30 25 -20 -8 -45 -12 -57 -9 -18 5
-21 12 -18 51 l3 45 114 69 c111 66 115 68 181 68 l68 0 144 181 c78 100 168
214 200 253 l56 71 -121 3 -122 3 110 58 109 59 58 -29 c66 -33 68 -34 68 -15
0 8 -24 27 -52 43 l-53 28 -3 177 -2 176 109 69 c61 37 112 76 114 85 3 11
-35 -8 -110 -54 l-115 -71 -165 81 c-90 44 -173 86 -183 94 -16 12 -19 31 -22
197 l-3 183 178 94 179 93 89 -44 c99 -50 99 -50 99 -32 0 7 -40 33 -90 57
l-90 44 -2 165 c-2 121 -6 165 -15 169 -10 3 -13 -36 -13 -170 l0 -173 -173
-88 c-94 -48 -176 -88 -180 -87 -5 0 -47 21 -93 46 l-84 46 46 43 c25 24 67
51 94 61 39 14 49 23 58 51 9 29 8 33 -9 33 -11 0 -27 -9 -36 -20 -10 -11 -33
-23 -53 -26 -19 -4 -44 -13 -55 -20 -11 -8 -27 -14 -37 -14 -10 0 -23 -9 -30
-21 -17 -27 -80 -59 -117 -59 -30 0 -53 -16 -71 -50 -5 -10 -22 -21 -37 -25
-16 -3 -39 -16 -53 -29 -14 -12 -47 -28 -75 -35 -72 -18 -84 -28 -168 -143
-55 -76 -79 -119 -90 -161 -8 -31 -29 -74 -46 -96 -57 -71 -188 -116 -222 -75
-21 25 -28 -3 -18 -75 10 -69 4 -85 -27 -79 -17 3 -19 12 -15 86 2 50 -1 82
-7 82 -5 0 -12 -7 -16 -15 -12 -32 -103 -12 -177 38 -41 27 -77 86 -90 147
-11 52 -34 100 -48 100 -3 0 -14 -22 -24 -50 -13 -35 -26 -54 -47 -65 -32 -17
-60 -20 -60 -6 0 5 -8 11 -17 14 -10 4 -36 13 -58 21 -51 20 -70 20 -100 0
-13 -9 -29 -13 -35 -9 -7 4 -14 -2 -17 -14 -3 -12 -9 -21 -13 -21 -5 0 -12
-10 -15 -22 -4 -13 -21 -38 -38 -55 -45 -47 -85 -45 -137 7 -22 22 -40 39 -41
38 -7 -21 -4 -61 6 -90 l12 -37 -76 41 c-42 23 -81 46 -87 52 -8 7 -13 73 -15
191 l-4 180 207 105 c114 58 212 110 217 115 6 6 7 16 3 22 -5 8 -74 -23 -226
-102 l-218 -114 -179 92 -179 92 0 167 c0 164 -8 201 -30 146 -5 -13 -9 -20
-9 -15 -1 4 -14 1 -30 -8 -39 -19 -44 -8 -25 49 17 49 33 59 41 26 6 -23 31
-26 55 -7 9 6 51 52 93 101 56 64 74 91 66 99 -9 9 -17 8 -31 -1 -11 -6 -22
-12 -25 -12 -11 0 -4 57 9 75 12 16 17 17 43 6 28 -11 34 -10 79 20 57 38 164
142 164 159 0 6 -10 11 -22 10 -62 -5 -78 15 -36 44 29 21 31 21 68 -10 l31
-27 22 20 c12 12 38 26 58 32 20 6 51 23 69 36 19 14 41 25 49 25 14 0 14 1 1
10 -8 5 -10 10 -5 10 6 1 -1 6 -15 11 l-25 10 36 34 c48 43 38 68 -15 36 -20
-13 -44 -21 -53 -19 -23 4 67 58 97 58 19 0 23 -6 36 -47 5 -19 46 0 113 51
72 57 107 73 156 74 49 2 157 54 184 89 18 22 32 26 103 34 45 5 84 12 87 15
9 8 366 -3 444 -14z m-843 -87 c0 -12 -64 -36 -88 -33 l-27 4 35 16 c33 16 80
23 80 13z m1211 -7 c44 -13 51 -28 14 -28 -25 0 -85 25 -85 35 0 8 31 5 71 -7z
m-2173 -1148 c-3 -45 -4 -45 -70 -80 -37 -19 -70 -31 -74 -27 -4 4 -2 25 5 48
16 53 4 66 -39 44 -32 -16 -32 -16 -25 7 4 13 14 38 21 56 12 30 17 33 44 27
35 -8 62 17 101 90 l24 45 8 -82 c4 -46 6 -103 5 -128z m196 -166 l176 -87 0
-182 c0 -134 -3 -185 -12 -192 -7 -6 -90 -50 -184 -98 l-170 -89 -117 65 -117
64 0 38 c0 52 -26 111 -45 103 -20 -7 -20 22 0 44 16 18 45 121 45 163 0 24
-3 28 -20 24 -33 -9 -23 19 25 69 25 26 47 56 51 66 6 19 146 97 176 98 9 0
95 -39 192 -86z m2340 -39 l96 -45 0 -183 0 -182 -174 -87 -175 -87 -45 15
c-25 9 -48 24 -51 34 -3 10 -32 48 -65 85 -37 42 -65 85 -75 116 -17 50 -17
50 12 107 l28 57 48 -3 c38 -2 48 0 54 15 21 60 141 162 190 163 12 0 27 9 33
20 6 11 14 20 19 20 4 0 51 -20 105 -45z m294 -525 l182 -89 0 -184 0 -184
-139 -71 -138 -72 -105 0 -106 0 -123 69 -124 69 -3 84 c-2 45 0 129 3 186 l7
103 176 89 c98 49 180 89 183 89 3 1 87 -39 187 -89z m-2348 28 c62 -33 98
-59 97 -68 -3 -37 17 -92 41 -111 26 -20 55 -100 45 -125 -2 -6 9 -17 26 -23
52 -22 62 -42 59 -112 l-3 -64 -125 -62 -124 -63 -104 0 -103 0 -135 67 -134
68 0 182 0 181 173 91 c94 49 175 90 180 90 4 1 52 -23 107 -51z m-490 -313
l0 -180 -39 -22 -38 -22 -18 65 c-11 40 -25 70 -38 79 -27 19 -47 19 -47 0 0
-24 -17 -17 -24 9 -3 13 -9 31 -12 39 -4 11 2 16 18 19 21 3 23 7 21 63 -2 64
-28 145 -45 145 -6 0 -17 -8 -24 -17 -12 -17 -13 -17 -14 3 0 12 -3 37 -7 55
-5 30 -4 32 9 22 12 -11 17 -9 26 12 l11 24 110 -57 111 -57 0 -180z m2168
233 c26 -13 54 -23 62 -23 13 0 15 -28 15 -195 l0 -194 -120 -67 -120 -68
-105 0 -105 0 -130 67 -130 67 0 69 0 70 55 27 c30 16 61 28 68 29 8 0 27 14
42 30 21 23 35 29 52 25 18 -4 27 2 44 29 15 23 18 38 12 44 -14 14 -1 66 21
86 24 22 123 17 149 -7 23 -21 58 -22 65 -2 4 8 21 18 39 24 18 5 34 10 36 10
1 1 24 -9 50 -21z m-668 -346 l0 -68 -123 -67 -123 -67 -111 0 -112 0 -120 66
-121 66 0 60 0 60 27 -7 c15 -3 45 -15 68 -25 63 -28 83 -32 105 -20 17 9 70
15 107 11 19 -2 55 -69 48 -91 -6 -18 -2 -20 49 -20 45 0 54 3 50 15 -4 8 -10
15 -15 15 -20 0 -7 51 19 81 27 30 33 32 124 38 53 3 100 9 104 14 18 18 24 3
24 -61z m-1285 -193 c5 -5 -31 -9 -83 -9 -51 0 -92 -2 -92 -5 0 -2 83 -116
184 -252 l183 -248 54 -6 c37 -3 93 -24 175 -63 131 -62 134 -66 134 -147 0
-34 3 -33 -45 -13 -46 19 -54 12 -32 -25 27 -46 23 -54 -25 -46 -68 11 -89 38
-43 55 34 13 32 25 -17 70 -36 33 -116 70 -152 70 -10 0 -7 -38 4 -45 16 -10
12 -25 -7 -25 -10 0 -36 16 -58 35 l-40 34 27 1 c21 0 29 6 34 27 4 14 3 33
-3 42 -11 18 -164 139 -177 140 -5 1 -6 -15 -3 -34 7 -40 -7 -46 -43 -17 -20
16 -21 21 -10 39 19 29 6 64 -48 135 -53 68 -88 86 -94 46 -3 -22 -5 -21 -26
12 -18 29 -19 36 -7 38 25 6 17 55 -22 133 -38 74 -73 103 -73 60 0 -12 -4
-21 -9 -21 -11 0 -41 72 -34 83 7 12 42 8 50 -7 7 -12 17 -8 53 19 l45 33 95
-51 c52 -27 99 -54 105 -58z m1169 -119 c63 -14 71 -28 74 -141 6 -172 -8
-184 -223 -184 -162 0 -187 9 -204 72 -22 78 -8 206 24 233 8 7 30 16 48 20
45 11 234 11 281 0z m689 -13 c64 -42 64 -252 0 -294 -33 -22 -246 -31 -310
-14 -76 21 -85 39 -81 168 4 158 12 164 234 160 104 -2 136 -6 157 -20z
m-1543 -42 c0 -80 16 -80 99 -6 l69 61 67 0 66 0 -64 -59 c-35 -33 -73 -68
-86 -78 l-23 -19 96 -79 c53 -43 96 -80 96 -82 0 -2 -31 -3 -69 -3 l-70 0 -69
60 c-39 33 -79 60 -91 60 -19 0 -21 -6 -21 -60 l0 -60 -50 0 -50 0 0 160 0
160 50 0 50 0 0 -55z m2155 32 c44 -37 47 -155 4 -198 -17 -17 -33 -19 -134
-19 l-115 0 0 -40 0 -40 -50 0 -50 0 0 160 0 160 159 0 c151 0 161 -1 186 -23z
m-1305 -442 l130 -65 0 -77 0 -76 -22 20 c-26 22 -154 53 -224 53 -51 0 -88
-16 -124 -55 -38 -41 -73 -55 -139 -55 l-59 0 -17 -50 c-21 -63 -35 -72 -35
-23 -1 51 -31 114 -69 145 -30 22 -32 29 -29 73 l3 49 120 63 120 63 108 0
107 0 130 -65z m760 3 l120 -63 0 -61 c0 -44 -5 -65 -16 -75 -24 -20 -45 -68
-53 -117 -3 -25 -11 -47 -17 -49 -6 -2 -20 20 -30 49 l-19 53 -90 7 c-94 8
-206 37 -314 82 -69 30 -93 27 -150 -14 -16 -11 -32 -20 -35 -20 -3 0 -6 31
-6 68 l0 68 118 66 117 67 128 0 127 1 120 -62z m-755 -188 c112 -15 119 -25
64 -92 -24 -29 -56 -63 -72 -76 -39 -34 -51 -60 -36 -78 17 -20 79 -17 114 6
18 12 47 20 72 20 36 0 53 -8 104 -47 34 -26 70 -65 80 -85 12 -24 34 -45 59
-58 62 -32 50 -60 -26 -60 -31 0 -46 12 -133 100 -53 55 -105 100 -114 100
-25 0 -21 -15 9 -31 35 -18 147 -140 167 -181 16 -33 9 -58 -18 -58 -7 0 -45
37 -85 83 -61 69 -154 147 -175 147 -18 0 1 -24 37 -46 103 -65 183 -172 147
-195 -8 -5 -17 -9 -20 -9 -9 0 -113 103 -142 143 -16 21 -36 37 -47 37 -27 0
-25 -13 2 -25 24 -11 98 -110 98 -132 0 -7 -5 -13 -12 -13 -16 0 -48 30 -48
46 0 20 -57 63 -129 96 -59 27 -76 30 -155 30 -79 -1 -237 26 -254 42 -3 3 9
36 26 73 16 38 33 84 37 103 13 62 21 70 73 70 59 1 112 20 158 56 57 46 77
55 109 50 17 -3 66 -10 110 -16z m471 -53 c38 -9 110 -21 159 -26 90 -11 101
-16 111 -61 21 -91 38 -133 69 -171 20 -23 32 -46 28 -50 -14 -14 -185 -69
-214 -69 -22 0 -95 24 -108 36 -2 1 6 15 18 30 26 33 29 110 5 140 -14 18 -15
15 -9 -32 6 -60 -6 -101 -32 -106 -29 -6 -147 19 -151 32 -3 7 -18 27 -34 46
-17 19 -28 37 -25 41 4 3 31 -6 61 -21 38 -19 53 -31 49 -41 -5 -16 5 -19 31
-9 27 10 19 20 -56 65 l-73 44 -115 1 c-112 2 -115 3 -130 27 -13 23 -12 28
15 68 24 34 48 51 118 85 l89 42 61 -28 c34 -15 94 -35 133 -43z m-436 -140
c0 -8 -9 -22 -20 -32 -16 -14 -23 -16 -32 -7 -9 9 -7 16 7 32 21 23 45 26 45
7z m-320 -216 c0 -12 -20 -25 -27 -18 -7 7 6 27 18 27 5 0 9 -4 9 -9z m97 -6
c6 -18 -23 -55 -44 -55 -16 0 -17 24 -3 51 13 23 38 25 47 4z m77 -14 c8 -12
-42 -71 -60 -71 -19 0 -18 9 6 48 19 31 43 41 54 23z m46 -66 c0 -36 22 -50
34 -20 7 19 26 20 26 1 0 -14 -45 -56 -60 -56 -4 0 -18 9 -31 19 -23 19 -23
20 -6 55 21 46 37 46 37 1z"/>
<path d="M2935 2948 c-16 -6 -37 -17 -45 -24 -9 -7 -32 -20 -53 -29 -26 -11
-39 -23 -43 -43 -15 -61 -140 -192 -185 -192 -38 0 -39 79 -3 129 15 20 41 48
58 64 22 19 25 25 11 20 -11 -3 -29 -12 -40 -20 -28 -19 -48 -16 -69 9 l-19
22 -15 -22 c-19 -29 -35 -28 -75 8 -24 21 -45 30 -68 30 l-34 0 49 -28 c58
-32 106 -95 113 -148 11 -85 -52 -80 -134 10 -43 48 -93 135 -93 164 0 6 -6
12 -13 12 -7 0 -29 9 -50 20 -55 30 -60 27 -52 -27 12 -86 60 -137 209 -224
32 -19 78 -53 101 -76 l43 -43 7 48 c3 26 5 52 4 58 -4 20 2 35 11 29 6 -3 10
-27 10 -53 0 -26 3 -57 6 -69 6 -22 8 -21 34 15 17 24 65 60 134 101 99 59
111 69 175 155 96 129 95 128 26 104z"/>
<path d="M2166 1684 c-10 -10 -16 -33 -16 -64 0 -70 14 -80 115 -80 101 0 115
10 115 80 0 70 -14 80 -115 80 -63 0 -88 -4 -99 -16z"/>
<path d="M2821 1691 c-8 -5 -16 -32 -19 -63 -6 -77 7 -88 109 -88 110 0 119 6
119 80 0 48 -4 61 -19 70 -24 12 -171 13 -190 1z"/>
<path d="M3460 1660 l0 -41 83 3 82 3 0 35 0 35 -82 3 -83 3 0 -41z"/>
</g>
</svg>
