<?xml version="1.0" standalone="no"?>
<!DOCTYPE svg PUBLIC "-//W3C//DTD SVG 20010904//EN"
 "http://www.w3.org/TR/2001/REC-SVG-20010904/DTD/svg10.dtd">
<svg version="1.0" xmlns="http://www.w3.org/2000/svg"
 width="225.000000pt" height="225.000000pt" viewBox="0 0 225.000000 225.000000"
 preserveAspectRatio="xMidYMid meet">

<g transform="translate(0.000000,225.000000) scale(0.100000,-0.100000)"
fill="#000000" stroke="none">
<path d="M0 1125 l0 -1125 1125 0 1125 0 0 1125 0 1125 -1125 0 -1125 0 0
-1125z m1335 1011 c395 -85 698 -381 798 -776 18 -70 21 -113 21 -240 -1 -135
-4 -168 -27 -254 -124 -463 -531 -776 -1007 -776 -466 0 -874 318 -997 776
-23 86 -26 119 -27 254 0 127 3 170 21 240 101 401 427 712 818 779 33 6 71
13 85 15 47 9 245 -3 315 -18z"/>
<path d="M980 1774 c-36 -7 -107 -34 -158 -59 -130 -65 -223 -157 -287 -287
-69 -141 -75 -182 -74 -548 l0 -315 31 65 c17 36 33 89 36 118 3 41 10 57 30
72 38 31 79 26 117 -14 17 -19 55 -46 82 -60 44 -22 53 -23 63 -11 7 8 27 17
45 21 32 6 36 11 64 88 99 270 99 271 89 295 -20 54 41 119 97 105 14 -3 35
-18 48 -33 13 -16 64 -44 133 -72 107 -44 112 -45 133 -28 20 16 21 26 21 177
0 125 -3 162 -14 171 -51 43 -6 140 66 141 14 0 46 22 80 53 48 44 57 58 61
95 l5 42 -301 -1 c-218 0 -320 -4 -367 -15z"/>
<path d="M1638 1581 c-42 -34 -57 -53 -57 -72 -1 -15 -10 -38 -21 -52 -18 -23
-20 -40 -20 -182 0 -153 1 -158 25 -187 84 -100 -57 -228 -149 -135 -18 17
-35 38 -37 44 -2 7 -53 32 -114 57 -88 35 -113 42 -131 34 -17 -8 -37 -49 -85
-177 -54 -145 -62 -174 -60 -229 2 -69 -13 -101 -55 -120 -55 -25 -123 -1
-139 48 -4 12 -33 34 -67 51 -54 27 -63 29 -90 18 -39 -16 -95 -131 -79 -164
5 -11 12 -28 15 -37 5 -17 28 -18 306 -18 346 0 407 8 535 70 140 68 237 166
305 305 61 126 70 192 70 505 l0 270 -31 0 c-17 0 -38 4 -47 9 -13 7 -31 -2
-74 -38z"/>
</g>
</svg>
