<?xml version="1.0" standalone="no"?>
<!DOCTYPE svg PUBLIC "-//W3C//DTD SVG 20010904//EN"
 "http://www.w3.org/TR/2001/REC-SVG-20010904/DTD/svg10.dtd">
<svg version="1.0" xmlns="http://www.w3.org/2000/svg"
 width="512.000000pt" height="512.000000pt" viewBox="0 0 512.000000 512.000000"
 preserveAspectRatio="xMidYMid meet">

<g transform="translate(0.000000,512.000000) scale(0.100000,-0.100000)"
fill="#000000" stroke="none">
<path d="M0 2560 l0 -2560 2560 0 2560 0 0 2560 0 2560 -2560 0 -2560 0 0
-2560z m2557 3 c-2 -2 -478 -2 -1058 -1 l-1054 3 730 304 c402 167 735 309
741 315 6 6 153 330 325 720 l314 709 3 -1023 c1 -563 1 -1025 -1 -1027z
m2113 -12 c-8 -4 -342 -144 -742 -312 l-727 -303 -302 -686 c-166 -377 -310
-701 -320 -720 -18 -34 -18 -6 -19 991 0 564 3 1029 7 1032 3 4 481 7 1062 7
581 0 1049 -4 1041 -9z"/>
</g>
</svg>
